# xmcd
#
# Track frame offsets: 
#        150
#        41723
#        125950
#        170009
#        192568
#        218848
#        239417
#        282366
#
# Disc length: 4141 seconds
#
# Revision: 2
# Processed by: cddbd v1.5.2PL0 Copyright (c) Steve Scherf et al.
# Submitted via: ExactAudioCopyFreeDBPlugin 1.0
#
DISCID=83102b08
DTITLE=Thy Catafalque - Tűnő Idő Tárlat 
DYEAR=2004
DGENRE=Black Metal
TTITLE0=Csillagkohó
TTITLE1=Neath Waters (Minden Vízbe Mártott Test)
TTITLE2=Bolygó, Bolyongó
TTITLE3=Kék Ég Karaván
TTITLE4=Héja-Nász Az Avaron
TTITLE5=Zápor
TTITLE6=Az Ősanya Szól Ivadékaihoz
TTITLE7=Varjak Fekszenek
EXTD=
EXTT0=
EXTT1=
EXTT2=
EXTT3=
EXTT4=
EXTT5=
EXTT6=
EXTT7=
PLAYORDER=
